<?xml version="1.0" standalone="no"?>
<!DOCTYPE svg PUBLIC "-//W3C//DTD SVG 20010904//EN"
 "http://www.w3.org/TR/2001/REC-SVG-20010904/DTD/svg10.dtd">
<svg version="1.0" xmlns="http://www.w3.org/2000/svg"
 width="320.000000pt" height="320.000000pt" viewBox="0 0 320.000000 320.000000"
 preserveAspectRatio="xMidYMid meet">
<metadata>
Created by potrace 1.14, written by Peter Selinger 2001-2017
</metadata>
<g transform="translate(0.000000,320.000000) scale(0.100000,-0.100000)"
fill="#000000" stroke="none">
<path d="M1814 2027 c-33 -28 -29 -60 13 -101 54 -54 98 -66 268 -71 44 -2 83
-3 86 -4 4 0 9 -22 13 -48 8 -62 15 -102 22 -133 3 -14 8 -35 10 -47 l4 -23
-552 0 -553 1 -47 94 c-26 52 -47 95 -45 96 1 0 29 2 62 5 75 6 147 29 169 53
19 20 13 67 -7 68 -22 2 -330 4 -420 4 -81 -1 -90 -3 -112 -27 -19 -21 -23
-34 -20 -70 5 -65 14 -83 43 -91 14 -3 46 0 71 7 83 23 80 24 137 -85 29 -55
53 -107 53 -115 1 -12 -136 -300 -142 -300 -1 0 -27 7 -57 16 -72 20 -210 27
-284 13 -121 -22 -257 -98 -347 -193 -124 -133 -181 -283 -175 -456 11 -281
190 -508 471 -598 65 -20 251 -22 320 -3 176 49 332 176 417 341 21 40 60 163
62 194 1 20 6 21 144 21 l143 0 37 40 c20 22 59 67 87 100 27 33 55 65 60 71
6 6 31 35 56 64 24 30 51 61 59 69 8 9 35 41 60 71 25 30 50 60 56 65 6 6 37
42 70 80 32 39 61 72 64 75 3 3 27 32 55 65 27 33 63 75 79 93 l30 33 18 -73
c24 -101 24 -104 -21 -121 -68 -28 -181 -128 -239 -214 -172 -251 -137 -595
82 -805 125 -120 255 -177 421 -183 233 -9 429 95 559 295 80 122 107 222 102
367 -7 163 -64 294 -183 417 -42 43 -152 126 -168 126 -3 0 -24 9 -48 19 -75
35 -130 45 -246 46 l-115 1 -18 69 c-9 39 -20 81 -22 95 -3 14 -19 89 -35 168
-17 79 -33 162 -36 185 -3 23 -10 56 -15 74 -4 17 -6 34 -3 37 11 11 -20 66
-41 72 -11 4 -85 8 -164 9 -143 2 -143 2 -187 34 -52 37 -65 38 -101 8z m346
-557 c0 -3 -15 -22 -34 -43 -19 -21 -51 -59 -73 -85 -21 -25 -42 -50 -48 -56
-5 -6 -34 -40 -64 -76 -30 -36 -60 -69 -65 -75 -6 -5 -47 -53 -91 -105 -82
-98 -104 -124 -150 -175 -15 -16 -40 -45 -56 -64 -16 -19 -30 -33 -32 -30 -10
14 -348 695 -347 701 0 4 26 8 58 10 97 5 902 3 902 -2z m-904 -415 c86 -171
160 -319 164 -331 8 -19 5 -20 -63 -18 -93 2 -87 0 -86 27 2 54 -48 180 -107
266 -31 46 -101 119 -146 151 l-36 27 51 106 c33 69 54 102 59 94 5 -6 78
-151 164 -322z m-498 84 c26 -7 48 -13 50 -14 1 -1 -52 -111 -119 -244 -118
-234 -121 -242 -105 -266 9 -13 24 -28 33 -33 10 -4 133 -8 274 -7 l257 0 -5
-25 c-18 -105 -64 -196 -135 -269 -94 -96 -209 -145 -349 -150 -152 -5 -279
44 -383 146 -56 55 -123 171 -130 223 -2 14 -7 33 -11 43 -13 30 1 209 20 267
52 155 186 281 346 324 66 18 194 20 257 5z m1936 -5 c183 -47 320 -190 366
-379 27 -117 1 -278 -63 -388 -160 -273 -570 -319 -801 -90 -58 57 -124 173
-130 226 -1 15 -6 30 -9 34 -4 3 -7 45 -7 92 0 73 6 109 33 206 6 20 48 96 65
117 37 47 104 104 150 130 l49 28 18 -63 c10 -34 18 -64 18 -67 0 -3 11 -36
24 -75 13 -38 24 -71 24 -72 0 -4 2 -11 39 -126 31 -94 49 -126 73 -128 77 -8
94 38 56 146 -57 161 -124 394 -120 418 2 13 152 7 215 -9z m-1700 -120 c43
-42 111 -138 104 -147 -2 -2 2 -10 9 -18 14 -17 44 -131 37 -139 -8 -7 -394
-7 -394 1 0 21 173 349 184 349 7 0 34 -21 60 -46z"/>
</g>
</svg>
